HIERARCHY
ROOT reference
{
  OFFSET 0 0 0
  CHANNELS 6 Xposition Yposition Zposition Zrotation Xrotation Yrotation
  JOINT Hips
  {
    OFFSET 106.437 76.8918 20.6558
    CHANNELS 6 Xposition Yposition Zposition Zrotation Xrotation Yrotation
    JOINT Spine
    {
      OFFSET 0 8.25043 0
      CHANNELS 6 Xposition Yposition Zposition Zrotation Xrotation Yrotation
      JOINT Spine1
      {
        OFFSET 0 26.9735 0
        CHANNELS 6 Xposition Yposition Zposition Zrotation Xrotation Yrotation
        JOINT Neck
        {
          OFFSET 0 26.8627 2.44206
          CHANNELS 6 Xposition Yposition Zposition Zrotation Xrotation Yrotation
          JOINT Head
          {
            OFFSET 0 14.0861 -2.0123
            CHANNELS 6 Xposition Yposition Zposition Zrotation Xrotation Yrotation
            End Site
            {
              OFFSET 0 25.1537 0
            }
          }
        }
        JOINT LeftShoulder
        {
          OFFSET 4.03461 23.8974 -0.31355
          CHANNELS 6 Xposition Yposition Zposition Zrotation Xrotation Yrotation
          JOINT LeftArm
          {
            OFFSET 14.6104 0 0
            CHANNELS 6 Xposition Yposition Zposition Zrotation Xrotation Yrotation
            JOINT LeftForeArm
            {
              OFFSET 28.8903 0 0
              CHANNELS 6 Xposition Yposition Zposition Zrotation Xrotation Yrotation
              JOINT LeftHand
              {
                OFFSET 28.8168 0 0
                CHANNELS 6 Xposition Yposition Zposition Zrotation Xrotation Yrotation
                End Site
                {
                  OFFSET 15.0922 0 0
                }
              }
            }
          }
        }
        JOINT RightShoulder
        {
          OFFSET -4.01401 23.8974 -0.31355
          CHANNELS 6 Xposition Yposition Zposition Zrotation Xrotation Yrotation
          JOINT RightArm
          {
            OFFSET -14.6104 0 0
            CHANNELS 6 Xposition Yposition Zposition Zrotation Xrotation Yrotation
            JOINT RightForeArm
            {
              OFFSET -28.8903 0 0
              CHANNELS 6 Xposition Yposition Zposition Zrotation Xrotation Yrotation
              JOINT RightHand
              {
                OFFSET -28.8168 0 0
                CHANNELS 6 Xposition Yposition Zposition Zrotation Xrotation Yrotation
                End Site
                {
                  OFFSET -15.0922 0 0
                }
              }
            }
          }
        }
      }
    }
    JOINT LeftUpLeg
    {
      OFFSET 10.0615 0 0
      CHANNELS 6 Xposition Yposition Zposition Zrotation Xrotation Yrotation
      JOINT LeftLeg
      {
        OFFSET 0 -36.0896 0
        CHANNELS 6 Xposition Yposition Zposition Zrotation Xrotation Yrotation
        JOINT LeftFoot
        {
          OFFSET 0 -47.1136 0
          CHANNELS 6 Xposition Yposition Zposition Zrotation Xrotation Yrotation
          JOINT LeftToeBase
          {
            OFFSET 0 -6.53997 15.0922
            CHANNELS 6 Xposition Yposition Zposition Zrotation Xrotation Yrotation
            End Site
            {
              OFFSET 0 0 4.0246
            }
          }
        }
      }
    }
    JOINT RightUpLeg
    {
      OFFSET -10.0615 0 0
      CHANNELS 6 Xposition Yposition Zposition Zrotation Xrotation Yrotation
      JOINT RightLeg
      {
        OFFSET 0 -36.0896 0
        CHANNELS 6 Xposition Yposition Zposition Zrotation Xrotation Yrotation
        JOINT RightFoot
        {
          OFFSET 0 -47.1136 0
          CHANNELS 6 Xposition Yposition Zposition Zrotation Xrotation Yrotation
          JOINT RightToeBase
          {
            OFFSET 0 -6.53997 15.0922
            CHANNELS 6 Xposition Yposition Zposition Zrotation Xrotation Yrotation
            End Site
            {
              OFFSET 0 0 4.0246
            }
          }
        }
      }
    }
  }
}
MOTION
Frames:	6
Frame Time:	0.004
0 0 0 0 0 -0 100.176 76.7124 -102.397 1.17537 -11.8121 -17.2613 0 8.25043 0 -0.689105 24.2162 1.64558 0 26.9735 0 -11.6686 30.6522 4.70556 1.42109e-014 26.8627 2.44206 6.43482 11.2108 -1.43315 1.42109e-014 14.0861 -2.0123 18.8345 -8.25835 2.24763 4.03461 23.8974 -0.31355 -2.1111 9.03528 -6.08241 14.6104 7.10543e-015 0 -9.84695 43.5346 -70.6765 28.8903 -1.42109e-014 0 25.9974 -18.9452 -70.5455 28.8168 1.42109e-014 0 14.8159 -0.943009 -4.0356 -4.01401 23.8974 -0.31355 4.68384 26.6226 4.2493 -14.6104 7.10543e-015 2.84217e-014 46.5199 45.8182 16.1446 -28.8903 -2.84217e-014 7.10543e-015 -13.9658 -24.5691 15.9743 -28.8168 0 0 3.51211 -22.6398 4.42871 10.0615 -1.42109e-014 0 24.0285 2.96183 -1.0792 1.42109e-014 -36.0896 0 -0.17882 36.5818 -24.3738 -7.10543e-015 -47.1136 0 -17.2245 -17.4396 24.1883 2.84217e-014 -6.53997 15.0922 4.96962e-016 0 3.97569e-016 -10.0615 -1.42109e-014 0 -29.9567 -50.8061 -17.4048 -1.42109e-014 -36.0896 2.13163e-014 76.6552 78.2039 -79.9778 0 -47.1136 -1.42109e-014 -21.9482 -17.4037 -10.7858 7.10543e-015 -6.53997 15.0922 1.76556e-031 1.59028e-015 -6.36111e-015 
0 0 0 0 0 -0 99.6868 77.0126 -102.137 1.40411 -11.4219 -17.4955 1.42109e-014 8.25043 1.42109e-014 -0.609301 23.6679 1.59431 0 26.9735 0 -11.5094 30.3233 4.59478 -1.42109e-014 26.8627 2.44206 6.77814 11.0424 -1.65027 0 14.0861 -2.0123 18.8769 -8.2886 2.00864 4.03461 23.8974 -0.31355 -2.26346 9.62788 -5.784 14.6104 -7.10543e-015 0 -11.9925 43.5875 -67.9286 28.8903 0 1.42109e-014 26.6007 -19.2383 -69.1864 28.8168 0 -7.10543e-015 16.2908 -1.39518 -4.45662 -4.01401 23.8974 -0.31355 4.70407 26.3787 3.88292 -14.6104 0 0 46.6756 45.4972 15.8362 -28.8903 0 7.10543e-015 -14.2292 -24.8852 16.0705 -28.8168 0 0 3.60444 -22.8981 4.89014 10.0615 -1.42109e-014 1.42109e-014 24.0345 3.50321 -1.23924 1.42109e-014 -36.0896 0 -0.3778 35.4143 -23.8408 -7.10543e-015 -47.1136 0 -17.8154 -16.3821 24.4569 -2.84217e-014 -6.53997 15.0922 -3.27995e-015 0 3.97569e-016 -10.0615 -1.42109e-014 0 -30.1536 -50.3924 -17.56 0 -36.0896 -1.42109e-014 71.3492 77.6466 -75.0138 0 -47.1136 0 -21.1901 -16.6403 -10.0636 -7.10543e-015 -6.53997 15.0922 -4.77083e-015 0 -3.18055e-015 
0 0 0 0 0 -0 99.1817 77.3121 -101.871 1.62167 -11.0637 -17.7168 1.42109e-014 8.25043 0 -0.541991 23.1149 1.53604 0 26.9735 2.84217e-014 -11.3244 30.072 4.47602 0 26.8627 2.44206 7.1689 10.8788 -1.72986 1.42109e-014 14.0861 -2.0123 18.7035 -8.43297 1.88077 4.03461 23.8974 -0.31355 -2.48667 10.1862 -5.47349 14.6104 0 0 -14.0969 43.4954 -65.1905 28.8903 0 -1.42109e-014 27.2156 -19.49 -67.678 28.8168 -7.10543e-015 0 16.8582 -1.8535 -5.00408 -4.01401 23.8974 -0.31355 4.62168 26.2119 3.63198 -14.6104 0 0 46.8624 44.9756 15.6047 -28.8903 0 0 -14.5043 -25.2115 16.2004 -28.8168 0 0 3.79484 -23.1659 5.03265 10.0615 1.42109e-014 0 24.052 4.04241 -1.32981 0 -36.0896 1.42109e-014 -0.483016 34.2975 -23.6955 -1.42109e-014 -47.1136 0 -18.4571 -15.3944 24.9776 -2.84217e-014 -6.53997 15.0922 2.13694e-015 0 -3.97569e-016 -10.0615 1.42109e-014 0 -30.2771 -49.9335 -17.665 0 -36.0896 -7.10543e-015 66.5164 77.0185 -70.4277 -7.10543e-015 -47.1136 1.42109e-014 -20.4268 -15.7647 -9.365 0 -6.53997 15.0922 -1.59028e-015 -3.18055e-015 6.36111e-015 
0 0 0 0 0 -0 98.6959 77.6061 -101.617 1.84299 -10.6806 -17.9702 0 8.25043 -1.42109e-014 -0.421183 22.5749 1.46262 2.84217e-014 26.9735 0 -11.3481 29.8026 4.40724 1.42109e-014 26.8627 2.44206 7.72038 10.5653 -1.84074 0 14.0861 -2.0123 18.4807 -8.37915 1.65751 4.03461 23.8974 -0.31355 -2.57007 10.7388 -5.00787 14.6104 -7.10543e-015 0 -15.6302 43.5157 -63.0433 28.8903 1.42109e-014 -1.42109e-014 28.1122 -20.017 -65.7707 28.8168 0 -1.42109e-014 17.4425 -2.54678 -5.38995 -4.01401 23.8974 -0.31355 4.65331 26.1071 3.42167 -14.6104 0 0 46.898 44.2957 15.4856 -28.8903 0 1.42109e-014 -14.6653 -25.4269 16.354 -28.8168 -1.42109e-014 -2.84217e-014 3.8702 -23.3327 5.32895 10.0615 -1.42109e-014 -1.42109e-014 24.077 4.51848 -1.41363 0 -36.0896 0 -0.727696 33.2357 -22.9883 7.10543e-015 -47.1136 0 -18.5361 -13.8432 25.247 2.84217e-014 -6.53997 15.0922 4.47266e-016 0 -1.98785e-016 -10.0615 0 -1.42109e-014 -30.3301 -49.5142 -17.7143 0 -36.0896 -7.10543e-015 61.7037 76.2675 -65.874 7.10543e-015 -47.1136 -1.42109e-014 -19.702 -14.8047 -8.63229 7.10543e-015 -6.53997 15.0922 0 0 -6.36111e-015 
0 0 0 0 0 -0 98.1506 77.9145 -101.31 2.01618 -10.3258 -18.1724 1.42109e-014 8.25043 0 -0.375913 22.0535 1.42757 -1.42109e-014 26.9735 0 -11.0165 29.4628 4.2589 1.42109e-014 26.8627 2.44206 8.24565 10.5701 -1.88841 1.42109e-014 14.0861 -2.0123 18.0541 -8.77274 1.54694 4.03461 23.8974 -0.31355 -2.85798 11.3554 -4.6436 14.6104 -7.10543e-015 0 -17.74 43.2426 -60.4119 28.8903 0 0 28.6024 -20.0711 -63.9918 28.8168 1.42109e-014 -3.55271e-015 18.1938 -3.01309 -5.79845 -4.01401 23.8974 -0.31355 4.65077 25.8362 3.05888 -14.6104 -1.42109e-014 0 47.1124 44.2446 15.0042 -28.8903 0 0 -15.2939 -25.9324 16.5392 -28.8168 1.42109e-014 -1.42109e-014 4.08407 -23.7276 5.40771 10.0615 -1.42109e-014 0 24.1906 5.07464 -1.58644 -1.42109e-014 -36.0896 -1.42109e-014 -0.885575 32.1234 -22.5693 -7.10543e-015 -47.1136 0 -18.7591 -12.4895 25.3656 -2.84217e-014 -6.53997 15.0922 1.49089e-015 0 -3.97569e-016 -10.0615 0 0 -30.3134 -48.9028 -17.7335 1.42109e-014 -36.0896 0 57.2949 75.3542 -61.6243 0 -47.1136 0 -18.6991 -13.8845 -7.92474 7.10543e-015 -6.53997 15.0922 -1.59028e-015 1.59028e-015 -6.36111e-015 
0 0 0 0 0 -0 97.6336 78.2082 -101.023 2.25285 -9.99792 -18.4113 0 8.25043 -1.42109e-014 -0.354326 21.6216 1.37755 2.84217e-014 26.9735 0 -10.8085 29.0109 4.11372 -1.42109e-014 26.8627 2.44206 8.71426 10.5836 -1.99313 -1.42109e-014 14.0861 -2.0123 17.6907 -9.05464 1.37536 4.03461 23.8974 -0.31355 -3.1198 11.9572 -4.17091 14.6104 0 2.84217e-014 -19.7249 42.9 -57.9739 28.8903 0 0 29.1023 -20.0939 -62.0623 28.8168 7.10543e-015 1.06581e-014 18.5361 -3.49698 -6.27057 -4.01401 23.8974 -0.31355 4.6654 25.7267 2.76682 -14.6104 2.84217e-014 0 47.057 43.5883 14.8924 -28.8903 0 1.42109e-014 -15.4957 -26.1553 16.6727 -28.8168 1.42109e-014 -1.42109e-014 4.33109 -23.8892 5.70803 10.0615 -1.42109e-014 -2.84217e-014 24.2216 5.59725 -1.68665 0 -36.0896 1.42109e-014 -1.04851 31.0066 -21.8999 2.84217e-014 -47.1136 0 -19.2623 -11.0807 25.3688 0 -6.53997 15.0922 1.19271e-015 3.18055e-015 -3.97569e-016 -10.0615 -1.42109e-014 0 -30.2931 -48.3433 -17.7525 7.10543e-015 -36.0896 0 53.1394 74.4579 -57.632 1.42109e-014 -47.1136 0 -17.6625 -12.9531 -7.31301 0 -6.53997 15.0922 3.18055e-015 -1.59028e-015 6.36111e-015 
